<?xml version="1.0" standalone="no"?>
<!DOCTYPE svg PUBLIC "-//W3C//DTD SVG 20010904//EN"
 "http://www.w3.org/TR/2001/REC-SVG-20010904/DTD/svg10.dtd">
<svg version="1.0" xmlns="http://www.w3.org/2000/svg"
 width="225.000000pt" height="225.000000pt" viewBox="0 0 225.000000 225.000000"
 preserveAspectRatio="xMidYMid meet">

<g transform="translate(0.000000,225.000000) scale(0.100000,-0.100000)"
fill="#000000" stroke="none">
<path d="M0 1125 l0 -1125 303 1 c166 1 284 5 262 8 -81 14 -158 79 -194 164
-21 48 -21 65 -21 713 l0 664 -69 0 c-102 0 -101 -1 -101 90 l0 79 43 3 42 3
3 55 c3 69 17 96 55 110 16 5 108 10 203 10 l174 0 0 44 c0 72 29 143 82 201
61 67 109 88 223 95 50 4 -156 7 -457 8 l-548 2 0 -1125z"/>
<path d="M1275 2240 c39 -3 86 -14 106 -24 99 -47 164 -142 176 -256 l6 -60
171 0 c233 0 252 -10 255 -132 l1 -48 45 0 45 0 0 -79 c0 -91 1 -91 -112 -91
l-68 0 0 -672 c0 -633 -2 -675 -19 -714 -37 -82 -106 -138 -191 -155 -19 -4
99 -7 263 -8 l297 -1 0 1125 0 1125 -522 -1 c-288 -1 -491 -5 -453 -9z"/>
<path d="M933 2050 c-39 -23 -51 -46 -59 -105 l-7 -45 257 0 256 0 0 36 c0 52
-26 100 -65 118 -26 13 -68 16 -192 16 -139 0 -162 -2 -190 -20z"/>
<path d="M522 884 l3 -666 28 -24 28 -24 540 0 c570 0 586 1 603 45 3 9 6 313
6 676 l0 659 -605 0 -605 0 2 -666z m346 -21 l2 -513 -85 0 -85 0 0 515 0 516
83 -3 82 -3 3 -512z m342 2 l0 -515 -85 0 -85 0 0 508 c0 280 3 512 7 515 3 4
42 7 85 7 l78 0 0 -515z m340 0 l0 -515 -80 0 -80 0 0 515 0 515 80 0 80 0 0
-515z"/>
</g>
</svg>
