<?xml version="1.0" standalone="no"?>
<!DOCTYPE svg PUBLIC "-//W3C//DTD SVG 20010904//EN"
 "http://www.w3.org/TR/2001/REC-SVG-20010904/DTD/svg10.dtd">
<svg version="1.0" xmlns="http://www.w3.org/2000/svg"
 width="610.000000pt" height="96.000000pt" viewBox="0 0 610.000000 96.000000"
 preserveAspectRatio="xMidYMid meet">

<g transform="translate(0.000000,96.000000) scale(0.100000,-0.100000)"
fill="#000000" stroke="none">
<path d="M0 480 l0 -480 3050 0 3050 0 0 480 0 480 -3050 0 -3050 0 0 -480z
m2914 331 c4 -5 -10 -62 -29 -128 -66 -224 -97 -353 -91 -378 11 -45 59 -35
188 38 93 53 106 42 35 -28 -66 -65 -154 -110 -193 -101 -39 10 -73 50 -80 95
-4 23 -9 41 -11 41 -3 0 -23 -14 -45 -31 -49 -39 -103 -59 -137 -50 -24 7 -36
29 -58 110 -2 7 -17 -8 -36 -35 -60 -90 -157 -140 -195 -102 -18 18 -14 84 7
127 41 79 201 201 265 201 34 0 39 -24 27 -115 -17 -117 -15 -135 12 -135 40
1 150 73 168 110 6 14 33 89 60 168 66 194 94 245 113 213z m2946 -14 c0 -12
-22 -98 -50 -191 -55 -184 -76 -285 -67 -310 14 -35 83 -16 194 54 85 54 99
32 25 -40 -51 -49 -141 -100 -178 -100 -37 0 -80 45 -93 95 -13 50 -10 50 -79
-2 -34 -26 -53 -33 -88 -33 -37 0 -45 4 -57 28 -8 15 -17 40 -21 55 l-7 29
-62 -67 c-89 -98 -145 -115 -178 -54 -9 19 -16 20 -52 14 -23 -5 -53 -8 -66
-7 -64 1 -106 61 -117 167 l-7 68 -21 -25 c-12 -14 -43 -65 -71 -113 -71 -125
-113 -145 -135 -63 -9 32 -7 54 9 119 26 102 56 169 75 169 22 0 20 -39 -4
-129 -31 -112 -21 -116 40 -18 104 169 158 171 178 6 11 -86 23 -115 53 -124
37 -12 64 3 162 93 96 88 195 152 236 152 32 0 42 -30 31 -96 -6 -33 -10 -80
-10 -106 0 -42 3 -48 21 -48 28 0 133 64 158 96 11 14 32 65 47 112 43 144
104 292 120 292 8 0 14 -10 14 -23z m-5467 -69 c39 -28 57 -69 57 -133 0 -126
-82 -181 -212 -141 -25 7 -51 10 -57 7 -6 -4 -17 -40 -26 -80 -17 -82 -34
-122 -52 -129 -9 -2 -13 8 -13 34 0 73 23 259 35 289 7 17 16 51 19 77 9 57
32 83 42 44 3 -14 9 -26 13 -26 4 0 22 16 41 35 35 36 82 56 110 47 8 -3 27
-14 43 -24z m3271 2 c36 -13 33 -22 -16 -45 l-43 -20 -27 -126 c-43 -200 -93
-316 -163 -378 -36 -31 -68 -39 -94 -22 -20 13 -11 27 44 69 33 25 59 56 77
92 29 57 72 214 83 305 l7 52 -32 7 c-18 3 -46 6 -62 6 -25 0 -49 23 -36 35 7
7 160 33 200 34 20 1 48 -3 62 -9z m-2234 -120 c0 -20 -6 -31 -20 -35 -23 -7
-140 -113 -140 -126 0 -5 27 -9 60 -9 152 0 182 -77 68 -174 -30 -26 -51 -36
-75 -36 -49 0 -42 23 22 67 58 40 76 69 54 84 -8 5 -53 6 -100 3 -82 -6 -88
-5 -98 15 -9 16 -8 28 5 53 36 70 191 207 215 192 5 -3 9 -18 9 -34z m3284 24
c29 -11 17 -33 -32 -58 -85 -43 -137 -114 -188 -259 -41 -113 -64 -126 -64
-34 0 59 35 226 50 241 7 7 10 6 10 -2 0 -25 27 -10 75 39 64 65 110 88 149
73z m-2719 -40 c0 -10 -7 -63 -16 -117 -10 -62 -12 -96 -6 -94 6 2 34 41 62
86 28 46 59 88 69 93 31 18 46 2 46 -49 0 -57 -26 -272 -34 -280 -3 -3 -12 -3
-20 0 -12 5 -16 28 -18 106 l-3 101 -58 -95 c-32 -52 -67 -105 -77 -117 -17
-21 -20 -22 -36 -6 -20 20 -20 68 0 168 9 41 16 76 16 77 0 2 -28 -17 -61 -42
-34 -25 -72 -48 -84 -51 -13 -3 -42 -28 -65 -56 -52 -61 -83 -75 -118 -52 -24
16 -25 17 -20 128 5 115 17 154 56 189 31 28 83 32 112 9 21 -17 25 -30 28
-91 2 -39 9 -71 14 -71 10 0 127 115 166 163 25 31 47 31 47 1z m1948 -8 c107
-99 -51 -419 -169 -341 -37 24 -47 60 -41 147 7 113 43 176 117 210 31 14 68
7 93 -16z m389 -3 c6 -57 -28 -242 -61 -326 -17 -44 -31 -22 -31 51 l0 67 -46
-53 c-58 -66 -88 -70 -111 -14 -20 47 -12 148 18 227 20 53 43 71 55 41 3 -7
-4 -59 -16 -115 -19 -95 -20 -141 -1 -141 8 0 65 96 106 180 33 65 63 110 75
110 5 0 10 -12 12 -27z m-3550 -20 c10 -9 18 -28 18 -42 0 -34 -51 -96 -101
-121 -47 -25 -64 -52 -49 -80 6 -11 15 -20 20 -20 27 0 106 48 176 107 129
107 139 110 146 49 l3 -28 32 46 c57 81 172 134 181 84 2 -11 -13 -26 -45 -44
-93 -53 -126 -96 -158 -209 -37 -129 -62 -111 -66 48 -1 37 -4 67 -7 67 -2 0
-33 -27 -69 -60 -64 -58 -168 -120 -203 -120 -9 0 -29 11 -44 25 -21 20 -26
33 -26 73 0 152 119 292 192 225z" />
<path d="M2444 476 c-71 -48 -144 -133 -144 -168 0 -18 5 -28 14 -28 20 0 98
80 151 155 64 89 60 95 -21 41z"/>
<path d="M5397 481 c-107 -69 -196 -201 -134 -201 23 0 147 141 191 218 12 20
-7 14 -57 -17z"/>
<path d="M282 676 c-16 -14 -43 -52 -61 -86 l-32 -60 33 -15 c58 -24 86 -27
123 -15 43 14 55 35 55 98 0 91 -57 128 -118 78z"/>
<path d="M1651 524 c-25 -32 -27 -61 -5 -92 30 -43 64 -16 64 52 0 70 -23 86
-59 40z"/>
<path d="M1612 348 c4 -30 43 -33 43 -3 0 13 -8 21 -23 23 -20 3 -23 0 -20
-20z"/>
<path d="M3843 531 c-36 -22 -50 -60 -59 -156 -5 -49 -3 -63 10 -74 15 -12 21
-11 44 6 47 35 76 99 76 172 1 59 -1 66 -19 69 -11 1 -34 -6 -52 -17z"/>
<path d="M695 503 c-26 -29 -41 -61 -32 -70 10 -9 90 73 83 85 -11 18 -23 14
-51 -15z"/>
</g>
</svg>
